<svg xmlns="http://www.w3.org/2000/svg"  viewBox="0 0 64 64" width="64px" height="64px"><path fill="#EFC36A" d="M59.367,50.053c1.1,0,2,0.9,2,2v2.844c0,1.1-0.9,2-2,2H33.456c-1.1,0-2-0.9-2-2v-2.844c0-1.1,0.9-2,2-2 H59.367z"/><path fill="#63312D" d="M59.367,57.396H33.456c-1.378,0-2.5-1.121-2.5-2.5v-2.844c0-1.379,1.122-2.5,2.5-2.5h25.911 c1.379,0,2.5,1.121,2.5,2.5v2.844C61.867,56.275,60.746,57.396,59.367,57.396z M33.456,50.553c-0.827,0-1.5,0.673-1.5,1.5v2.844 c0,0.827,0.673,1.5,1.5,1.5h25.911c0.827,0,1.5-0.673,1.5-1.5v-2.844c0-0.827-0.673-1.5-1.5-1.5H33.456z"/><path fill="#DB785A" d="M59.367,43.209c1.1,0,2,0.9,2,2v2.844c0,1.1-0.9,2-2,2H33.456c-1.1,0-2-0.9-2-2v-2.844c0-1.1,0.9-2,2-2 H59.367z"/><path fill="#63312D" d="M59.367,50.553H33.456c-1.378,0-2.5-1.121-2.5-2.5v-2.844c0-1.379,1.122-2.5,2.5-2.5h25.911 c1.379,0,2.5,1.121,2.5,2.5v2.844C61.867,49.432,60.746,50.553,59.367,50.553z M33.456,43.709c-0.827,0-1.5,0.673-1.5,1.5v2.844 c0,0.827,0.673,1.5,1.5,1.5h25.911c0.827,0,1.5-0.673,1.5-1.5v-2.844c0-0.827-0.673-1.5-1.5-1.5H33.456z"/><path fill="#F9DD9D" d="M53.367,50.053c1.1,0,2,0.9,2,2v2.844c0,1.1-0.9,2-2,2H33.456c-1.1,0-2-0.9-2-2v-2.844c0-1.1,0.9-2,2-2 H53.367z"/><path fill="#FFEECF" d="M35.456,52.053h19.911c0-1.1-0.9-2-2-2H33.456c-1.1,0-2,0.9-2,2v2.844c0,1.1,0.9,2,2,2v-2.844 C33.456,52.953,34.356,52.053,35.456,52.053z"/><path fill="#F8F3F3" d="M37.416,53.475c0,0.564-0.458,1.021-1.022,1.021c-0.563,0-1.021-0.457-1.021-1.021 c0-0.565,0.458-1.022,1.021-1.022C36.958,52.453,37.416,52.91,37.416,53.475z"/><path fill="#F8F3F3" d="M50.388,52.451H40.26c-0.563,0-1.019,0.455-1.019,1.018s0.456,1.02,1.019,1.02h10.128 c0.563,0,1.019-0.457,1.019-1.02S50.95,52.451,50.388,52.451z"/><path fill="#52B8D9" d="M59.367,36.365c1.1,0,2,0.9,2,2v2.844c0,1.1-0.9,2-2,2H33.456c-1.1,0-2-0.9-2-2v-2.844c0-1.1,0.9-2,2-2 H59.367z"/><path fill="#63312D" d="M53.367,57.396H33.456c-1.378,0-2.5-1.121-2.5-2.5v-2.844c0-1.379,1.122-2.5,2.5-2.5h19.911 c1.379,0,2.5,1.121,2.5,2.5v2.844C55.867,56.275,54.746,57.396,53.367,57.396z M33.456,50.553c-0.827,0-1.5,0.673-1.5,1.5v2.844 c0,0.827,0.673,1.5,1.5,1.5h19.911c0.827,0,1.5-0.673,1.5-1.5v-2.844c0-0.827-0.673-1.5-1.5-1.5H33.456z"/><path fill="#63312D" d="M36.394,54.996c-0.839,0-1.521-0.683-1.521-1.521s0.683-1.521,1.521-1.521c0.84,0,1.522,0.683,1.522,1.521 S37.233,54.996,36.394,54.996z M36.394,52.953c-0.287,0-0.521,0.234-0.521,0.521s0.234,0.521,0.521,0.521 c0.288,0,0.522-0.234,0.522-0.521S36.682,52.953,36.394,52.953z"/><path fill="#63312D" d="M59.367,43.709H33.456c-1.378,0-2.5-1.121-2.5-2.5v-2.844c0-1.379,1.122-2.5,2.5-2.5h25.911 c1.379,0,2.5,1.121,2.5,2.5v2.844C61.867,42.588,60.746,43.709,59.367,43.709z M33.456,36.865c-0.827,0-1.5,0.673-1.5,1.5v2.844 c0,0.827,0.673,1.5,1.5,1.5h25.911c0.827,0,1.5-0.673,1.5-1.5v-2.844c0-0.827-0.673-1.5-1.5-1.5H33.456z"/><path fill="#63312D" d="M50.388,54.988H40.26c-0.837,0-1.519-0.682-1.519-1.52c0-0.837,0.682-1.518,1.519-1.518h10.128 c0.837,0,1.519,0.681,1.519,1.518C51.906,54.307,51.225,54.988,50.388,54.988z M40.26,52.951c-0.286,0-0.519,0.232-0.519,0.518 c0,0.286,0.232,0.52,0.519,0.52h10.128c0.286,0,0.519-0.233,0.519-0.52c0-0.285-0.232-0.518-0.519-0.518H40.26z"/><path fill="#F9A287" d="M53.367,43.209c1.1,0,2,0.9,2,2v2.844c0,1.1-0.9,2-2,2H33.456c-1.1,0-2-0.9-2-2v-2.844c0-1.1,0.9-2,2-2 H53.367z"/><path fill="#FFC8BB" d="M35.456,45.209h19.911c0-1.1-0.9-2-2-2H33.456c-1.1,0-2,0.9-2,2v2.844c0,1.1,0.9,2,2,2v-2.844 C33.456,46.109,34.356,45.209,35.456,45.209z"/><path fill="#F8F3F3" d="M37.416,46.631c0,0.565-0.458,1.022-1.022,1.022c-0.563,0-1.021-0.457-1.021-1.022 c0-0.564,0.458-1.021,1.021-1.021C36.958,45.609,37.416,46.066,37.416,46.631z"/><path fill="#F8F3F3" d="M50.388,45.607H40.26c-0.563,0-1.019,0.455-1.019,1.018s0.456,1.02,1.019,1.02h10.128 c0.563,0,1.019-0.457,1.019-1.02S50.95,45.607,50.388,45.607z"/><path fill="#63312D" d="M53.367,50.553H33.456c-1.378,0-2.5-1.121-2.5-2.5v-2.844c0-1.379,1.122-2.5,2.5-2.5h19.911 c1.379,0,2.5,1.121,2.5,2.5v2.844C55.867,49.432,54.746,50.553,53.367,50.553z M33.456,43.709c-0.827,0-1.5,0.673-1.5,1.5v2.844 c0,0.827,0.673,1.5,1.5,1.5h19.911c0.827,0,1.5-0.673,1.5-1.5v-2.844c0-0.827-0.673-1.5-1.5-1.5H33.456z"/><path fill="#63312D" d="M36.394,48.152c-0.839,0-1.521-0.683-1.521-1.521s0.683-1.521,1.521-1.521c0.84,0,1.522,0.683,1.522,1.521 S37.233,48.152,36.394,48.152z M36.394,46.109c-0.287,0-0.521,0.234-0.521,0.521s0.234,0.521,0.521,0.521 c0.288,0,0.522-0.234,0.522-0.521S36.682,46.109,36.394,46.109z"/><path fill="#63312D" d="M50.388,48.145H40.26c-0.837,0-1.519-0.682-1.519-1.52c0-0.837,0.682-1.518,1.519-1.518h10.128 c0.837,0,1.519,0.681,1.519,1.518C51.906,47.463,51.225,48.145,50.388,48.145z M40.26,46.107c-0.286,0-0.519,0.232-0.519,0.518 c0,0.286,0.232,0.52,0.519,0.52h10.128c0.286,0,0.519-0.233,0.519-0.52c0-0.285-0.232-0.518-0.519-0.518H40.26z"/><path fill="#84DBFF" d="M53.367,36.365c1.1,0,2,0.898,2,2v2.844c0,1.1-0.9,2-2,2H33.456c-1.1,0-2-0.9-2-2v-2.844c0-1.102,0.9-2,2-2 H53.367z"/><path fill="#CAF4FF" d="M35.456,38.365h19.911c0-1.102-0.9-2-2-2H33.456c-1.1,0-2,0.898-2,2v2.844c0,1.1,0.9,2,2,2v-2.844 C33.456,39.264,34.356,38.365,35.456,38.365z"/><path fill="#63312D" d="M53.367,43.709H33.456c-1.378,0-2.5-1.121-2.5-2.5v-2.844c0-1.379,1.122-2.5,2.5-2.5h19.911 c1.379,0,2.5,1.121,2.5,2.5v2.844C55.867,42.588,54.746,43.709,53.367,43.709z M33.456,36.865c-0.827,0-1.5,0.673-1.5,1.5v2.844 c0,0.827,0.673,1.5,1.5,1.5h19.911c0.827,0,1.5-0.673,1.5-1.5v-2.844c0-0.827-0.673-1.5-1.5-1.5H33.456z"/><path fill="#F8F3F3" d="M37.416,39.787c0,0.564-0.458,1.021-1.022,1.021c-0.563,0-1.021-0.457-1.021-1.021 c0-0.565,0.458-1.024,1.021-1.024C36.958,38.764,37.416,39.223,37.416,39.787z"/><path fill="#F8F3F3" d="M50.388,38.764H40.26c-0.563,0-1.019,0.455-1.019,1.018s0.456,1.02,1.019,1.02h10.128 c0.563,0,1.019-0.457,1.019-1.02S50.95,38.764,50.388,38.764z"/><path fill="#63312D" d="M36.394,41.309c-0.839,0-1.521-0.683-1.521-1.521c0-0.84,0.683-1.523,1.521-1.523 c0.84,0,1.522,0.684,1.522,1.523C37.916,40.626,37.233,41.309,36.394,41.309z M36.394,39.264c-0.287,0-0.521,0.234-0.521,0.523 c0,0.287,0.234,0.521,0.521,0.521c0.288,0,0.522-0.234,0.522-0.521C36.916,39.498,36.682,39.264,36.394,39.264z"/><path fill="#63312D" d="M50.388,41.301H40.26c-0.837,0-1.519-0.682-1.519-1.52c0-0.837,0.682-1.518,1.519-1.518h10.128 c0.837,0,1.519,0.681,1.519,1.518C51.906,40.619,51.225,41.301,50.388,41.301z M40.26,39.264c-0.286,0-0.519,0.232-0.519,0.518 c0,0.286,0.232,0.52,0.519,0.52h10.128c0.286,0,0.519-0.233,0.519-0.52c0-0.285-0.232-0.518-0.519-0.518H40.26z"/><path fill="#F8F3F3" d="M47.192,41.208c0,1.1-0.899,2-2,2H5.634c-1.101,0-2-0.9-2-2V8.104c0-1.1,0.899-2,2-2h39.559 c1.101,0,2,0.9,2,2V41.208z"/><path fill="#82D9FF" d="M47.192,8.104c0-1.1-0.899-2-2-2H5.634c-1.101,0-2,0.9-2,2v3.668h43.559V8.104z"/><path fill="#CAF4FF" d="M5.634,10.104c0-1.1,0.899-2,2-2h39.559c0-1.1-0.899-2-2-2H5.634c-1.101,0-2,0.9-2,2v3.668h2V10.104z"/><path fill="#63312D" d="M47.192,12.271H3.634c-0.276,0-0.5-0.224-0.5-0.5V8.104c0-1.379,1.122-2.5,2.5-2.5h39.559 c1.379,0,2.5,1.121,2.5,2.5v3.668C47.692,12.048,47.469,12.271,47.192,12.271z M4.134,11.271h42.559V8.104 c0-0.827-0.673-1.5-1.5-1.5H5.634c-0.827,0-1.5,0.673-1.5,1.5V11.271z"/><path fill="#63312D" d="M45.192,43.708H5.634c-1.378,0-2.5-1.121-2.5-2.5V8.104c0-1.379,1.122-2.5,2.5-2.5h39.559 c1.379,0,2.5,1.121,2.5,2.5v33.104C47.692,42.587,46.571,43.708,45.192,43.708z M5.634,6.604c-0.827,0-1.5,0.673-1.5,1.5v33.104 c0,0.827,0.673,1.5,1.5,1.5h39.559c0.827,0,1.5-0.673,1.5-1.5V8.104c0-0.827-0.673-1.5-1.5-1.5H5.634z"/><path fill="#F9DD9D" d="M9.541,8.938c0,0.631-0.512,1.142-1.143,1.142c-0.632,0-1.144-0.512-1.144-1.142 c0-0.631,0.512-1.143,1.144-1.143C9.029,7.795,9.541,8.307,9.541,8.938z"/><path fill="#F9DD9D" d="M13.775,8.938c0,0.631-0.512,1.142-1.144,1.142c-0.631,0-1.143-0.512-1.143-1.142 c0-0.631,0.512-1.143,1.143-1.143C13.264,7.795,13.775,8.307,13.775,8.938z"/><path fill="#F9DD9D" d="M18.009,8.938c0,0.631-0.512,1.142-1.143,1.142c-0.632,0-1.144-0.512-1.144-1.142 c0-0.631,0.512-1.143,1.144-1.143C17.497,7.795,18.009,8.307,18.009,8.938z"/><path fill="#63312D" d="M8.398,10.58c-0.906,0-1.644-0.737-1.644-1.643s0.737-1.643,1.644-1.643c0.906,0,1.643,0.737,1.643,1.643 S9.304,10.58,8.398,10.58z M8.398,8.295c-0.355,0-0.644,0.288-0.644,0.643S8.043,9.58,8.398,9.58c0.354,0,0.643-0.288,0.643-0.643 S8.753,8.295,8.398,8.295z"/><path fill="#63312D" d="M12.632,10.58c-0.906,0-1.643-0.737-1.643-1.643s0.737-1.643,1.643-1.643c0.906,0,1.644,0.737,1.644,1.643 S13.538,10.58,12.632,10.58z M12.632,8.295c-0.354,0-0.643,0.288-0.643,0.643s0.288,0.643,0.643,0.643 c0.355,0,0.644-0.288,0.644-0.643S12.987,8.295,12.632,8.295z"/><path fill="#63312D" d="M16.866,10.58c-0.906,0-1.644-0.737-1.644-1.643s0.737-1.643,1.644-1.643c0.906,0,1.643,0.737,1.643,1.643 S17.772,10.58,16.866,10.58z M16.866,8.295c-0.355,0-0.644,0.288-0.644,0.643s0.289,0.643,0.644,0.643 c0.354,0,0.643-0.288,0.643-0.643S17.221,8.295,16.866,8.295z"/><path fill="#F9DD9D" d="M14.534,38.125c-1.1,0-1.55-0.779-1-1.732l10.835-18.766c0.55-0.953,1.45-0.953,2,0l10.836,18.766 c0.55,0.953,0.1,1.732-1,1.732H14.534z"/><path fill="#FFEECF" d="M15.534,36.393l10.835-18.766c-0.55-0.953-1.45-0.953-2,0L13.534,36.393c-0.55,0.953-0.1,1.732,1,1.732h2 C15.434,38.125,14.984,37.346,15.534,36.393z"/><path fill="#63312D" d="M36.205,38.625H14.534c-0.708,0-1.273-0.276-1.552-0.759c-0.278-0.481-0.235-1.11,0.119-1.724 l10.835-18.766c0.708-1.227,2.158-1.227,2.866,0l10.835,18.766c0.354,0.613,0.397,1.241,0.119,1.724S36.912,38.625,36.205,38.625z M25.369,17.412c-0.19,0-0.396,0.169-0.567,0.465L13.967,36.643c-0.17,0.295-0.214,0.56-0.119,0.724 c0.095,0.164,0.345,0.259,0.686,0.259h21.671c0.341,0,0.591-0.095,0.686-0.259s0.052-0.429-0.119-0.724L25.936,17.877 C25.766,17.581,25.559,17.412,25.369,17.412z"/><path fill="#F8F3F3" d="M26.414,34.605c0,0.576-0.469,1.045-1.045,1.045c-0.576,0-1.044-0.469-1.044-1.045 c0-0.577,0.468-1.045,1.044-1.045C25.945,33.561,26.414,34.028,26.414,34.605z"/><path fill="#F8F3F3" d="M26.718,24.721c0-0.744-0.604-1.348-1.35-1.348c-0.744,0-1.348,0.604-1.348,1.348 c0,0.048,0.304,5.695,0.304,5.695l0,0l0,0c0,0.578,0.468,1.045,1.044,1.045c0.577,0,1.045-0.467,1.045-1.045l0,0l0,0 C26.414,30.416,26.718,24.768,26.718,24.721z"/><path fill="#63312D" d="M25.369,36.15c-0.852,0-1.544-0.693-1.544-1.545s0.693-1.545,1.544-1.545c0.852,0,1.545,0.693,1.545,1.545 S26.221,36.15,25.369,36.15z M25.369,34.061c-0.3,0-0.544,0.244-0.544,0.545s0.244,0.545,0.544,0.545 c0.301,0,0.545-0.244,0.545-0.545S25.669,34.061,25.369,34.061z"/><path fill="#63312D" d="M25.369,31.961c-0.852,0-1.544-0.693-1.544-1.545c-0.304-5.634-0.304-5.677-0.304-5.695 c0-1.019,0.829-1.848,1.848-1.848c1.02,0,1.85,0.829,1.85,1.848c0,0.019,0,0.062-0.304,5.722 C26.914,31.268,26.221,31.961,25.369,31.961z M25.368,23.873c-0.467,0-0.848,0.38-0.848,0.848c0.006,0.15,0.303,5.669,0.303,5.669 c0,0.327,0.245,0.571,0.545,0.571c0.301,0,0.545-0.244,0.545-0.545c0-0.026,0.291-5.426,0.304-5.704 C26.213,24.249,25.834,23.873,25.368,23.873z"/><path fill="#F8F3F3" d="M58.299,23.651h-1.688v-1.688c0-0.552-0.448-1-1-1c-0.552,0-1,0.448-1,1v1.688h-1.688c-0.552,0-1,0.448-1,1 c0,0.552,0.448,1,1,1h1.688v1.688c0,0.552,0.448,1,1,1c0.552,0,1-0.448,1-1v-1.688h1.688c0.552,0,1-0.448,1-1 C59.299,24.1,58.852,23.651,58.299,23.651z"/><path fill="#63312D" d="M55.611,28.839c-0.827,0-1.5-0.673-1.5-1.5v-1.188h-1.188c-0.827,0-1.5-0.673-1.5-1.5s0.673-1.5,1.5-1.5 h1.188v-1.188c0-0.827,0.673-1.5,1.5-1.5s1.5,0.673,1.5,1.5v1.188h1.188c0.827,0,1.5,0.673,1.5,1.5s-0.673,1.5-1.5,1.5h-1.188 v1.188C57.111,28.166,56.438,28.839,55.611,28.839z M52.924,24.151c-0.275,0-0.5,0.225-0.5,0.5s0.225,0.5,0.5,0.5h1.688 c0.276,0,0.5,0.224,0.5,0.5v1.688c0,0.275,0.225,0.5,0.5,0.5s0.5-0.225,0.5-0.5v-1.688c0-0.276,0.224-0.5,0.5-0.5h1.688 c0.275,0,0.5-0.225,0.5-0.5s-0.225-0.5-0.5-0.5h-1.688c-0.276,0-0.5-0.224-0.5-0.5v-1.688c0-0.275-0.225-0.5-0.5-0.5 s-0.5,0.225-0.5,0.5v1.688c0,0.276-0.224,0.5-0.5,0.5H52.924z"/><path fill="#F8F3F3" d="M20.528,50.916H18.84v-1.688c0-0.552-0.448-1-1-1c-0.552,0-1,0.448-1,1v1.688h-1.688c-0.552,0-1,0.448-1,1 c0,0.552,0.448,1,1,1h1.688v1.688c0,0.552,0.448,1,1,1c0.552,0,1-0.448,1-1v-1.688h1.688c0.552,0,1-0.448,1-1 C21.528,51.364,21.08,50.916,20.528,50.916z"/><path fill="#63312D" d="M17.84,56.104c-0.827,0-1.5-0.673-1.5-1.5v-1.188h-1.188c-0.827,0-1.5-0.673-1.5-1.5s0.673-1.5,1.5-1.5 h1.188v-1.188c0-0.827,0.673-1.5,1.5-1.5s1.5,0.673,1.5,1.5v1.188h1.188c0.827,0,1.5,0.673,1.5,1.5s-0.673,1.5-1.5,1.5H19.34v1.188 C19.34,55.431,18.667,56.104,17.84,56.104z M15.153,51.416c-0.276,0-0.5,0.225-0.5,0.5s0.224,0.5,0.5,0.5h1.688 c0.276,0,0.5,0.224,0.5,0.5v1.688c0,0.275,0.224,0.5,0.5,0.5s0.5-0.225,0.5-0.5v-1.688c0-0.276,0.224-0.5,0.5-0.5h1.688 c0.276,0,0.5-0.225,0.5-0.5s-0.224-0.5-0.5-0.5H18.84c-0.276,0-0.5-0.224-0.5-0.5v-1.688c0-0.275-0.224-0.5-0.5-0.5 s-0.5,0.225-0.5,0.5v1.688c0,0.276-0.224,0.5-0.5,0.5H15.153z"/></svg>