<svg xmlns="http://www.w3.org/2000/svg" width="96" height="96" viewBox="0 0 96 96"><switch><g><path d="M79.113 16.888C61.929-.295 34.07-.295 16.887 16.888s-17.183 45.043 0 62.226 45.042 17.183 62.226 0c17.183-17.183 17.183-45.043 0-62.226zm-8.641 2.984l-11.44 11.441c-6.666-4.417-15.396-4.417-22.062 0L25.528 19.872c13.103-10.495 31.841-10.495 44.944 0zM60 48.001c0 6.627-5.373 12-12 12s-12-5.373-12-12c0-6.628 5.373-12 12-12s12 5.372 12 12zM19.871 25.529L31.312 36.97c-4.417 6.666-4.417 15.396 0 22.062l-11.441 11.44c-10.495-13.103-10.495-31.84 0-44.943zm5.657 50.601l11.441-11.441c6.666 4.416 15.396 4.416 22.062 0l11.44 11.441c-13.102 10.494-31.84 10.494-44.943 0zm50.601-5.658l-11.441-11.44c4.416-6.666 4.416-15.396 0-22.062l11.441-11.441c10.494 13.103 10.494 31.84 0 44.943z"/></g></switch></svg>