<svg xmlns="http://www.w3.org/2000/svg"  viewBox="0 0 24 24" width="100px" height="100px"><path d="M20,15.141V6c0-1.657-1.343-3-3-3H7C5.343,3,4,4.343,4,6v13	c0,1.657,1.343,3,3,3h9.38c0.703,0.615,1.613,1,2.62,1c2.209,0,4-1.791,4-4C23,17.138,21.722,15.587,20,15.141z" opacity=".35"/><path d="M14,1h-4C8.895,1,8,1.895,8,3s0.895,2,2,2h4c1.105,0,2-0.895,2-2S15.105,1,14,1z"/><path d="M22.536,15.464c-1.952-1.952-5.119-1.952-7.071,0s-1.952,5.119,0,7.071s5.119,1.952,7.071,0S24.487,17.416,22.536,15.464z M20.061,21.475L19,20.414l-1.061,1.061c-0.389,0.389-1.025,0.389-1.414,0c-0.389-0.389-0.389-1.025,0-1.414L17.586,19l-1.061-1.061	c-0.389-0.389-0.389-1.025,0-1.414c0.389-0.389,1.025-0.389,1.414,0L19,17.586l1.061-1.061c0.389-0.389,1.025-0.389,1.414,0	c0.389,0.389,0.389,1.025,0,1.414L20.414,19l1.061,1.061c0.389,0.389,0.389,1.025,0,1.414C21.086,21.864,20.45,21.864,20.061,21.475	z"/><path d="M16,9H8C7.448,9,7,8.552,7,8v0c0-0.552,0.448-1,1-1h8c0.552,0,1,0.448,1,1v0C17,8.552,16.552,9,16,9z"/><path d="M16,13H8c-0.552,0-1-0.448-1-1v0c0-0.552,0.448-1,1-1h8c0.552,0,1,0.448,1,1v0C17,12.552,16.552,13,16,13z"/><path d="M11,17H8c-0.552,0-1-0.448-1-1v0c0-0.552,0.448-1,1-1h3c0.552,0,1,0.448,1,1v0C12,16.552,11.552,17,11,17z"/></svg>