<?xml version="1.0"?><svg fill="#000000" xmlns="http://www.w3.org/2000/svg"  viewBox="0 0 24 24" width="64px" height="64px">    <path d="M 14.947266 2.0039062 C 14.778766 1.9979062 14.608484 2.0324688 14.458984 2.1054688 L 12 3.3085938 L 9.5390625 2.1054688 C 9.0570625 1.8704688 8.4786563 2.0563906 8.2226562 2.5253906 L 6.890625 4.96875 L 4.1933594 5.4414062 C 3.6673594 5.5334062 3.307 6.0246875 3.375 6.5546875 L 3.7324219 9.3144531 L 1.828125 11.28125 C 1.456125 11.66525 1.4533125 12.275063 1.8203125 12.664062 L 3.7324219 14.685547 L 3.3496094 17.396484 C 3.2746094 17.926484 3.6292969 18.420531 4.1542969 18.519531 L 6.890625 19.03125 L 8.1738281 21.449219 C 8.4238281 21.922219 8.998375 22.114766 9.484375 21.884766 L 11.998047 20.691406 L 12 20.691406 L 14.458984 21.894531 C 14.599984 21.963531 14.749484 21.996094 14.896484 21.996094 C 15.252484 21.996094 15.595391 21.807562 15.775391 21.476562 L 17.107422 19.033203 L 19.804688 18.558594 C 20.330687 18.466594 20.691047 17.975313 20.623047 17.445312 L 20.267578 14.6875 L 22.169922 12.71875 C 22.541922 12.33475 22.544734 11.726891 22.177734 11.337891 L 20.267578 9.3144531 L 20.650391 6.6035156 C 20.725391 6.0735156 20.36875 5.5794688 19.84375 5.4804688 L 17.109375 4.96875 L 15.826172 2.5507812 C 15.740172 2.3887812 15.582781 2.234625 15.425781 2.140625 C 15.282281 2.055625 15.115766 2.0099062 14.947266 2.0039062 z M 14.496094 4.3105469 L 15.570312 6.3378906 C 15.715313 6.6108906 15.97725 6.8005156 16.28125 6.8535156 L 18.535156 7.2695312 L 18.21875 9.5195312 C 18.17575 9.8245312 18.273281 10.132516 18.488281 10.353516 L 20.066406 12.015625 L 18.828125 13.296875 L 18.488281 13.648438 C 18.274281 13.869437 18.17575 14.177422 18.21875 14.482422 L 18.517578 16.753906 L 16.28125 17.146484 C 15.97725 17.200484 15.717266 17.390109 15.572266 17.662109 L 14.478516 19.679688 L 12.4375 18.681641 C 12.2995 18.614641 12.15 18.580078 12 18.580078 C 11.85 18.580078 11.699547 18.613641 11.560547 18.681641 L 9.4921875 19.669922 L 8.4277344 17.662109 C 8.2827344 17.389109 8.02275 17.199484 7.71875 17.146484 L 5.4648438 16.730469 L 5.78125 14.484375 C 5.82525 14.178375 5.7257656 13.869484 5.5097656 13.646484 L 3.9316406 11.986328 L 5.5097656 10.355469 C 5.7247656 10.132469 5.82525 9.8235781 5.78125 9.5175781 L 5.4804688 7.2460938 L 7.71875 6.8535156 C 8.02175 6.8005156 8.2827344 6.6108906 8.4277344 6.3378906 L 9.5195312 4.3203125 L 11.560547 5.3183594 C 11.837547 5.4533594 12.1605 5.4533594 12.4375 5.3183594 L 14.496094 4.3105469 z M 14.402344 7.5507812 L 8.3984375 15.548828 L 9.5976562 16.449219 L 15.601562 8.4511719 L 14.402344 7.5507812 z M 9.5 8 C 8.672 8 8 8.672 8 9.5 C 8 10.328 8.672 11 9.5 11 C 10.328 11 11 10.328 11 9.5 C 11 8.672 10.328 8 9.5 8 z M 14.5 13 C 13.672 13 13 13.672 13 14.5 C 13 15.328 13.672 16 14.5 16 C 15.328 16 16 15.328 16 14.5 C 16 13.672 15.328 13 14.5 13 z"/></svg>
